<svg width="47" height="47" viewBox="0 0 47 47" fill="none" xmlns="http://www.w3.org/2000/svg">
<g clip-path="url(#clip0_1194_6413)">
<path d="M32.0268 0.205872C29.5431 0.377665 26.6401 1.96748 24.9484 4.03773C23.4051 5.91581 22.1356 8.70526 22.6306 11.4161C25.3444 11.5005 28.1484 9.87287 29.7731 7.76768C31.2931 5.80807 32.4432 3.03609 32.0268 0.205872Z" fill="#011614"/>
<path d="M41.8427 15.8356C39.458 12.8453 36.1065 11.1099 32.9415 11.1099C28.7631 11.1099 26.9957 13.1102 24.0927 13.1102C21.0994 13.1102 18.8253 11.1157 15.2118 11.1157C11.6624 11.1157 7.88297 13.2849 5.4866 16.9945C2.11771 22.2182 2.69424 32.0395 8.15376 40.405C10.1075 43.3982 12.7165 46.7642 16.129 46.7933C19.166 46.8224 20.0221 44.8454 24.1364 44.825C28.2507 44.8017 29.031 46.8195 32.0621 46.7875C35.4776 46.7613 38.2292 43.0314 40.183 40.0381C41.5835 37.8921 42.1047 36.8119 43.1908 34.3893C35.2913 31.3815 34.0246 20.1479 41.8427 15.8356Z" fill="#011614"/>
</g>
<defs>
<clipPath id="clip0_1194_6413">
<rect width="46.5882" height="46.5882" fill="white" transform="translate(0 0.205872)"/>
</clipPath>
</defs>
</svg>
