<svg width="36" height="36" viewBox="0 0 36 36" fill="none" xmlns="http://www.w3.org/2000/svg">
<path d="M24.748 0C22.8288 0.132749 20.5855 1.36124 19.2783 2.96098C18.0858 4.41222 17.1048 6.56771 17.4873 8.66245C19.5843 8.7277 21.751 7.46996 23.0065 5.84322C24.181 4.32897 25.0698 2.18699 24.748 0Z" fill="white"/>
<path d="M32.333 12.0775C30.4902 9.76677 27.9005 8.42578 25.4548 8.42578C22.226 8.42578 20.8603 9.97152 18.6171 9.97152C16.3041 9.97152 14.5468 8.43028 11.7546 8.43028C9.01187 8.43028 6.09139 10.1065 4.23965 12.973C1.63641 17.0095 2.08191 24.5987 6.30063 31.0629C7.81038 33.3759 9.82636 35.9769 12.4633 35.9994C14.8101 36.0219 15.4716 34.4941 18.6508 34.4784C21.83 34.4604 22.433 36.0196 24.7753 35.9949C27.4145 35.9746 29.5407 33.0924 31.0505 30.7794C32.1327 29.1212 32.5355 28.2864 33.3747 26.4144C27.2705 24.0902 26.2918 15.4097 32.333 12.0775Z" fill="white"/>
</svg>
