<svg width="72" height="72" viewBox="0 0 72 72" fill="none" xmlns="http://www.w3.org/2000/svg">
<rect width="72" height="72" rx="36" fill="#4CAF50"/>
<g clip-path="url(#clip0_1265_5406)">
<path d="M36 34.1667C38.4312 34.1667 40.7627 35.1325 42.4818 36.8516C44.2009 38.5707 45.1667 40.9023 45.1667 43.3334V54.3334H26.8334V43.3334C26.8334 40.9023 27.7991 38.5707 29.5182 36.8516C31.2373 35.1325 33.5689 34.1667 36 34.1667ZM23.6947 39.6777C23.4029 40.6619 23.2306 41.6775 23.1814 42.7027L23.1667 43.3334V54.3334H17.6667V46.0834C17.6663 44.5023 18.2497 42.9767 19.305 41.7993C20.3603 40.6219 21.8131 39.8755 23.3849 39.7034L23.6965 39.6777H23.6947ZM48.3054 39.6777C49.9369 39.7772 51.469 40.4953 52.5891 41.6857C53.7093 42.876 54.3331 44.4489 54.3334 46.0834V54.3334H48.8334V43.3334C48.8334 42.0629 48.65 40.8364 48.3054 39.6777ZM24.0834 28.6667C25.2989 28.6667 26.4647 29.1496 27.3243 30.0092C28.1838 30.8687 28.6667 32.0345 28.6667 33.2501C28.6667 34.4657 28.1838 35.6314 27.3243 36.491C26.4647 37.3505 25.2989 37.8334 24.0834 37.8334C22.8678 37.8334 21.702 37.3505 20.8424 36.491C19.9829 35.6314 19.5 34.4657 19.5 33.2501C19.5 32.0345 19.9829 30.8687 20.8424 30.0092C21.702 29.1496 22.8678 28.6667 24.0834 28.6667ZM47.9167 28.6667C49.1323 28.6667 50.298 29.1496 51.1576 30.0092C52.0171 30.8687 52.5 32.0345 52.5 33.2501C52.5 34.4657 52.0171 35.6314 51.1576 36.491C50.298 37.3505 49.1323 37.8334 47.9167 37.8334C46.7011 37.8334 45.5353 37.3505 44.6758 36.491C43.8162 35.6314 43.3334 34.4657 43.3334 33.2501C43.3334 32.0345 43.8162 30.8687 44.6758 30.0092C45.5353 29.1496 46.7011 28.6667 47.9167 28.6667ZM36 17.6667C37.9449 17.6667 39.8102 18.4394 41.1855 19.8146C42.5607 21.1899 43.3334 23.0552 43.3334 25.0001C43.3334 26.945 42.5607 28.8103 41.1855 30.1855C39.8102 31.5608 37.9449 32.3334 36 32.3334C34.0551 32.3334 32.1898 31.5608 30.8146 30.1855C29.4393 28.8103 28.6667 26.945 28.6667 25.0001C28.6667 23.0552 29.4393 21.1899 30.8146 19.8146C32.1898 18.4394 34.0551 17.6667 36 17.6667Z" fill="white"/>
</g>
<defs>
<clipPath id="clip0_1265_5406">
<rect width="44" height="44" fill="white" transform="translate(14 14)"/>
</clipPath>
</defs>
</svg>
