<svg width="72" height="72" viewBox="0 0 72 72" fill="none" xmlns="http://www.w3.org/2000/svg">
<rect width="72" height="72" rx="36" fill="#4CAF50"/>
<g clip-path="url(#clip0_1268_216)">
<path d="M21.3334 43.3332V50.6665H28.6667V54.3332H17.6667V43.3332H21.3334ZM54.3334 43.3332V54.3332H43.3334V50.6665H50.6667V43.3332H54.3334ZM27.75 26.8332C27.75 29.0212 28.6192 31.1196 30.1664 32.6668C31.7136 34.214 33.812 35.0832 36 35.0832C38.1881 35.0832 40.2865 34.214 41.8336 32.6668C43.3808 31.1196 44.25 29.0212 44.25 26.8332H47.9167C47.9171 29.0137 47.3192 31.1526 46.1881 33.0168C45.057 34.8811 43.4361 36.3993 41.5019 37.406L41.5 48.8332H30.5V37.4078C28.5652 36.4012 26.9437 34.8829 25.8122 33.0182C24.6808 31.1536 24.0828 29.0142 24.0834 26.8332H27.75ZM36 23.1665C37.2156 23.1665 38.3814 23.6494 39.2409 24.5089C40.1005 25.3685 40.5834 26.5343 40.5834 27.7498C40.5834 28.9654 40.1005 30.1312 39.2409 30.9907C38.3814 31.8503 37.2156 32.3332 36 32.3332C34.7844 32.3332 33.6187 31.8503 32.7591 30.9907C31.8996 30.1312 31.4167 28.9654 31.4167 27.7498C31.4167 26.5343 31.8996 25.3685 32.7591 24.5089C33.6187 23.6494 34.7844 23.1665 36 23.1665ZM28.6667 17.6665V21.3332L21.3334 21.3313V28.6665H17.6667V17.6665H28.6667ZM54.3334 17.6665V28.6665H50.6667V21.3332H43.3334V17.6665H54.3334Z" fill="white"/>
</g>
<defs>
<clipPath id="clip0_1268_216">
<rect width="44" height="44" fill="white" transform="translate(14 14)"/>
</clipPath>
</defs>
</svg>
