<svg width="72" height="72" viewBox="0 0 72 72" fill="none" xmlns="http://www.w3.org/2000/svg">
<rect width="72" height="72" rx="36" fill="#4CAF50"/>
<g clip-path="url(#clip0_1268_196)">
<path d="M33.9833 17.8501L52.1315 20.4443L54.7238 38.5943L37.8718 55.4463C37.528 55.79 37.0618 55.983 36.5757 55.983C36.0895 55.983 35.6233 55.79 35.2795 55.4463L17.1295 37.2963C16.7858 36.9525 16.5927 36.4862 16.5927 36.0001C16.5927 35.514 16.7858 35.0477 17.1295 34.7039L33.9833 17.8501ZM39.168 33.4078C39.5085 33.7482 39.9128 34.0182 40.3577 34.2024C40.8026 34.3866 41.2794 34.4814 41.761 34.4813C42.2425 34.4812 42.7193 34.3863 43.1641 34.2019C43.609 34.0176 44.0131 33.7474 44.3536 33.4068C44.694 33.0663 44.964 32.662 45.1482 32.2171C45.3324 31.7722 45.4272 31.2954 45.4271 30.8139C45.427 30.3323 45.3321 29.8555 45.1477 29.4107C44.9634 28.9659 44.6932 28.5617 44.3527 28.2213C44.0121 27.8808 43.6078 27.6108 43.1629 27.4266C42.718 27.2424 42.2412 27.1477 41.7597 27.1478C40.7872 27.1479 39.8546 27.5344 39.1671 28.2222C38.4795 28.91 38.0934 29.8427 38.0936 30.8152C38.0937 31.7876 38.4802 32.7202 39.168 33.4078Z" fill="white"/>
</g>
<defs>
<clipPath id="clip0_1268_196">
<rect width="44" height="44" fill="white" transform="translate(14 14)"/>
</clipPath>
</defs>
</svg>
