<svg width="72" height="72" viewBox="0 0 72 72" fill="none" xmlns="http://www.w3.org/2000/svg">
<rect width="72" height="72" rx="36" fill="#4CAF50"/>
<g clip-path="url(#clip0_1268_408)">
<path d="M36 39.6668V54.3335H21.3333C21.3333 50.4437 22.8786 46.7131 25.6291 43.9626C28.3796 41.2121 32.1102 39.6668 36 39.6668ZM36 37.8335C29.9225 37.8335 25 32.911 25 26.8335C25 20.756 29.9225 15.8335 36 15.8335C42.0775 15.8335 47 20.756 47 26.8335C47 32.911 42.0775 37.8335 36 37.8335ZM52.1847 52.1848L47 57.3713L41.8153 52.1848C40.7895 51.1593 40.0909 49.8527 39.8077 48.4301C39.5246 47.0075 39.6697 45.5329 40.2247 44.1928C40.7797 42.8526 41.7196 41.7072 42.9256 40.9013C44.1316 40.0954 45.5495 39.6653 47 39.6653C48.4505 39.6653 49.8684 40.0954 51.0744 40.9013C52.2804 41.7072 53.2204 42.8526 53.7753 44.1928C54.3303 45.5329 54.4754 47.0075 54.1923 48.4301C53.9091 49.8527 53.2105 51.1593 52.1847 52.1848ZM47 45.1668C46.5138 45.1668 46.0475 45.36 45.7036 45.7038C45.3598 46.0476 45.1667 46.5139 45.1667 47.0002C45.1667 47.4864 45.3598 47.9527 45.7036 48.2965C46.0475 48.6403 46.5138 48.8335 47 48.8335C47.4862 48.8335 47.9526 48.6403 48.2964 48.2965C48.6402 47.9527 48.8333 47.4864 48.8333 47.0002C48.8333 46.5139 48.6402 46.0476 48.2964 45.7038C47.9526 45.36 47.4862 45.1668 47 45.1668Z" fill="white"/>
</g>
<defs>
<clipPath id="clip0_1268_408">
<rect width="44" height="44" fill="white" transform="translate(14 14)"/>
</clipPath>
</defs>
</svg>
