<svg width="460" height="448" viewBox="0 0 460 448" fill="none" xmlns="http://www.w3.org/2000/svg">
<path d="M195.962 448.001H124.2V356.76C150.249 348.643 174.096 339.705 195.962 330.102V448.001Z" fill="#4CAF50"/>
<path d="M426.438 448.001H337.913L244.381 306.05C267.077 293.33 287.149 279.829 304.968 265.796L426.438 448.001Z" fill="#4CAF50"/>
<path d="M195.962 220.977C172.699 241.843 148.942 258.892 124.2 273.774V100.186H195.962V220.977Z" fill="#4CAF50"/>
<path d="M75.8089 320.211C196.422 283.932 290.408 207.5 337.432 88.8157C342.118 77.0854 346.595 63.7248 350.299 51.5875C351.475 47.3533 352.687 43.1141 353.942 38.8656C353.956 38.7932 354.073 38.8141 354.064 38.8875L353.404 45.4924C352.055 58.6777 349.599 71.945 346.303 84.7977C335.51 128.266 314.254 168.944 286.406 203.837C234.546 268.718 159.503 313.431 79.2547 332.821C71.162 334.538 67.7244 322.998 75.8089 320.211Z" fill="#FF9800"/>
<path d="M300.634 195.441L317.679 196.636C331.16 197.582 343.952 190.786 350.83 179.141C359.433 164.573 367.071 149.469 373.704 133.896L351.462 137.862C340.986 139.73 331.921 146.207 326.703 155.5C318.92 169.363 310.215 182.698 300.634 195.441Z" fill="white"/>
<path d="M341.35 126.39L357.185 123.566C371.389 121.033 382.976 110.78 387.275 96.9686C392.598 79.8639 396.78 62.2979 399.779 44.3495L383.038 50.5924C371.488 54.8999 362.669 64.4697 359.355 76.3805C354.567 93.5913 348.544 110.288 341.35 126.39Z" fill="white"/>
<path d="M295.907 119.457L285.152 105.876C280.342 116.236 274.94 126.31 268.966 136.063C264.168 143.896 263.536 153.611 267.339 162.005L276.522 182.279C284.241 172.267 291.37 161.856 297.882 151.081C303.87 141.171 303.115 128.56 295.907 119.457Z" fill="white"/>
<path d="M323.89 45.025L308.509 31.4791C305.66 47.5509 301.572 63.2197 296.289 78.387C293.196 87.2686 294.831 97.1333 300.68 104.519L313.9 121.213C321.137 105.88 327.216 89.9452 332.064 73.4936C335.09 63.2249 331.932 52.1075 323.89 45.025Z" fill="white"/>
<path d="M239.806 258.89L256.951 263.295C270.534 266.784 284.957 262.796 294.695 252.723C307.562 239.414 319.393 225.346 330.141 210.603L310.302 209.212C298.441 208.381 286.835 212.969 278.834 221.762C266.837 234.946 253.806 247.35 239.806 258.89Z" fill="white"/>
<path d="M260.724 178.935L252.343 160.432C243.002 172.78 232.659 184.495 221.353 195.487C215.056 201.609 212.545 210.673 214.684 219.227L219.908 240.111C232.931 229.568 245.068 218.236 256.261 206.19C263.089 198.844 264.88 188.108 260.724 178.935Z" fill="white"/>
</svg>
