<svg width="72" height="72" viewBox="0 0 72 72" fill="none" xmlns="http://www.w3.org/2000/svg">
<rect width="72" height="72" rx="36" fill="#4CAF50"/>
<g clip-path="url(#clip0_1265_5540)">
<path d="M54.3333 50.6667V54.3334H17.6667V50.6667H19.5V38.2771C18.3713 37.5237 17.4461 36.5034 16.8065 35.3066C16.1669 34.1099 15.8326 32.7737 15.8333 31.4167C15.8333 29.9006 16.244 28.4394 16.9938 27.1946L21.9658 18.5834C22.1267 18.3047 22.3582 18.0733 22.6369 17.9124C22.9156 17.7515 23.2317 17.6668 23.5535 17.6667H48.4483C48.7701 17.6668 49.0863 17.7515 49.365 17.9124C49.6437 18.0733 49.8751 18.3047 50.036 18.5834L54.9897 27.1671C56.0834 28.9837 56.4349 31.1519 55.9712 33.221C55.5076 35.2901 54.2643 37.1009 52.5 38.2771V50.6667H54.3333ZM24.6132 21.3334L20.1527 29.0572C19.7192 30.1282 19.7062 31.3233 20.1162 32.4034C20.5263 33.4835 21.3291 34.3689 22.364 34.8825C23.3989 35.396 24.5896 35.4997 25.6977 35.1729C26.8059 34.8461 27.7497 34.1128 28.3403 33.1199C28.9545 31.5854 31.127 31.5854 31.743 33.1199C32.0827 33.9713 32.6699 34.7013 33.4288 35.2156C34.1877 35.7299 35.0833 36.0047 36 36.0047C36.9167 36.0047 37.8123 35.7299 38.5712 35.2156C39.3301 34.7013 39.9173 33.9713 40.257 33.1199C40.8712 31.5854 43.0437 31.5854 43.6597 33.1199C43.8976 33.7056 44.2541 34.2357 44.7068 34.6769C45.1594 35.1182 45.6985 35.461 46.29 35.6839C46.8816 35.9067 47.5128 36.0048 48.1441 35.972C48.7754 35.9392 49.3931 35.7761 49.9583 35.493C50.5235 35.21 51.0241 34.8131 51.4285 34.3272C51.8329 33.8414 52.1325 33.2772 52.3084 32.67C52.4842 32.0628 52.5326 31.4258 52.4504 30.799C52.3682 30.1722 52.1573 29.5692 51.8308 29.0279L47.385 21.3334H24.615H24.6132Z" fill="white"/>
</g>
<defs>
<clipPath id="clip0_1265_5540">
<rect width="44" height="44" fill="white" transform="translate(14 14)"/>
</clipPath>
</defs>
</svg>
