<svg width="36" height="36" viewBox="0 0 36 36" fill="none" xmlns="http://www.w3.org/2000/svg">
<g clip-path="url(#clip0_1161_6027)">
<path d="M19.8222 17.2829L2.41009 34.695C1.57773 33.9076 1.12781 32.8278 1.12781 31.658V4.34761C1.12781 3.15531 1.60023 2.07549 2.45508 1.26562L19.8222 17.2829Z" fill="#2196F3"/>
<path d="M34.8722 18.0025C34.8722 19.5773 34.0174 20.972 32.6001 21.7594L27.6509 24.5039L21.5095 18.8349L19.8223 17.2827L26.3237 10.7812L32.6001 14.2457C34.0174 15.033 34.8722 16.4278 34.8722 18.0025Z" fill="#FFC107"/>
<path d="M19.8222 17.2832L2.45514 1.26587C2.6801 1.04091 2.97255 0.83844 3.265 0.65847C4.68227 -0.196386 6.39198 -0.218882 7.85423 0.590982L26.3236 10.7818L19.8222 17.2832Z" fill="#4CAF50"/>
<path d="M27.6509 24.5045L7.85418 35.4152C7.1568 35.8201 6.36943 36.0001 5.60456 36.0001C4.79469 36.0001 3.98483 35.7976 3.26495 35.3477C2.95 35.1677 2.65755 34.9427 2.4101 34.6953L19.8222 17.2832L21.5094 18.8354L27.6509 24.5045Z" fill="#F44336"/>
</g>
<defs>
<clipPath id="clip0_1161_6027">
<rect width="36" height="36" fill="white"/>
</clipPath>
</defs>
</svg>
