<svg width="72" height="72" viewBox="0 0 72 72" fill="none" xmlns="http://www.w3.org/2000/svg">
<rect width="72" height="72" rx="36" fill="#4CAF50"/>
<g clip-path="url(#clip0_1633_7077)">
<path d="M48.8334 54.3334H23.1667C21.708 54.3334 20.309 53.754 19.2776 52.7225C18.2461 51.6911 17.6667 50.2921 17.6667 48.8334V19.5001C17.6667 19.0139 17.8598 18.5475 18.2037 18.2037C18.5475 17.8599 19.0138 17.6667 19.5 17.6667H45.1667C45.6529 17.6667 46.1192 17.8599 46.463 18.2037C46.8069 18.5475 47 19.0139 47 19.5001V41.5001H54.3334V48.8334C54.3334 50.2921 53.7539 51.6911 52.7224 52.7225C51.691 53.754 50.292 54.3334 48.8334 54.3334ZM47 45.1667V48.8334C47 49.3196 47.1932 49.786 47.537 50.1298C47.8808 50.4736 48.3471 50.6667 48.8334 50.6667C49.3196 50.6667 49.7859 50.4736 50.1297 50.1298C50.4735 49.786 50.6667 49.3196 50.6667 48.8334V45.1667H47ZM25 26.8334V30.5001H39.6667V26.8334H25ZM25 34.1667V37.8334H39.6667V34.1667H25ZM25 41.5001V45.1667H34.1667V41.5001H25Z" fill="white"/>
</g>
<defs>
<clipPath id="clip0_1633_7077">
<rect width="44" height="44" fill="white" transform="translate(14 14)"/>
</clipPath>
</defs>
</svg>
