<svg width="72" height="72" viewBox="0 0 72 72" fill="none" xmlns="http://www.w3.org/2000/svg">
<rect width="72" height="72" rx="36" fill="#4CAF50"/>
<g clip-path="url(#clip0_1265_5464)">
<path d="M32.304 23.2767C33.0477 21.8603 34.069 20.6081 35.307 19.5949C36.545 18.5816 37.9743 17.828 39.5098 17.379C41.0452 16.9299 42.6554 16.7947 44.2443 16.9812C45.8331 17.1678 47.3682 17.6723 48.7579 18.4648C50.1476 19.2573 51.3635 20.3215 52.3331 21.594C53.3027 22.8664 54.0062 24.3211 54.4016 25.8712C54.797 27.4214 54.8762 29.0353 54.6345 30.6167C54.3929 32.1981 53.8353 33.7147 52.995 35.076C54.4655 36.4608 55.4862 38.2554 55.9248 40.2272C56.3634 42.1989 56.1997 44.257 55.4549 46.1346C54.7101 48.0123 53.4185 49.6229 51.7476 50.7579C50.0766 51.8928 48.1033 52.4997 46.0833 52.5L30.5 52.4982C28.4987 52.4966 26.519 52.0856 24.6826 51.2903C22.8461 50.495 21.1919 49.3323 19.8217 47.8738C18.4514 46.4152 17.3942 44.6917 16.715 42.8092C16.0358 40.9268 15.749 38.9252 15.8723 36.9278C15.9956 34.9304 16.5264 32.9793 17.4319 31.1947C18.3375 29.4101 19.5987 27.8297 21.138 26.5507C22.6772 25.2718 24.4619 24.3214 26.3822 23.758C28.3025 23.1946 30.3178 23.0302 32.304 23.2748V23.2767ZM36.1008 24.274C37.932 25.033 39.591 26.1543 40.9781 27.5704C42.3653 28.9865 43.452 30.6683 44.173 32.5148C46.094 32.1466 48.0805 32.3421 49.893 33.0777C50.7428 31.264 50.9039 29.2032 50.3462 27.2796C49.7884 25.3559 48.55 23.7009 46.8618 22.6232C45.1736 21.5454 43.151 21.1187 41.1713 21.4224C39.1916 21.7262 37.3901 22.7397 36.1026 24.274H36.1008Z" fill="white"/>
</g>
<defs>
<clipPath id="clip0_1265_5464">
<rect width="44" height="44" fill="white" transform="translate(14 14)"/>
</clipPath>
</defs>
</svg>
