<svg width="72" height="72" viewBox="0 0 72 72" fill="none" xmlns="http://www.w3.org/2000/svg">
<rect width="72" height="72" rx="36" fill="#4CAF50"/>
<g clip-path="url(#clip0_1268_156)">
<path fill-rule="evenodd" clip-rule="evenodd" d="M34.9583 46.0041C34.0015 46.2064 33.0103 46.3123 31.9905 46.3123C24.0843 46.3123 17.6676 39.8945 17.6676 31.9894C17.6676 24.0843 24.0843 17.6665 31.9905 17.6665C39.8968 17.6665 46.3134 24.0843 46.3134 31.9894C46.3134 33.0063 46.2103 33.9986 46.004 34.9554C50.7134 35.6395 54.3343 39.6969 54.3343 44.5936C54.3343 49.9693 49.9686 54.3332 44.5947 54.3332C39.6962 54.3332 35.64 50.7123 34.9583 46.0041ZM44.5947 37.1457C48.7025 37.1457 52.0426 40.4829 52.0426 44.5936C52.0426 48.7043 48.7025 52.0415 44.5947 52.0415C40.4869 52.0415 37.1468 48.7043 37.1468 44.5936C37.1468 40.4829 40.4869 37.1457 44.5947 37.1457ZM43.4488 46.4109L41.1572 44.1192L39.5358 45.7394L44.5947 50.7971L49.6535 45.7394L48.0322 44.1192L45.7405 46.4109V38.2915H43.4488V46.4109ZM37.7197 23.9686H26.2613V26.2603H29.6988C31.1942 26.2603 32.4718 27.217 32.9416 28.5519H26.2613V30.8436H32.9416C32.4718 32.1785 31.1942 33.1353 29.6988 33.1353H26.2613V35.3582L33.5088 42.0006L35.0556 40.3116L29.7275 35.4263C32.489 35.4132 34.7864 33.4498 35.3135 30.8436H37.7197V28.5519H35.3135C35.1416 27.7051 34.7806 26.9266 34.2822 26.2603H37.7197V23.9686Z" fill="white"/>
</g>
<defs>
<clipPath id="clip0_1268_156">
<rect width="44" height="44" fill="white" transform="translate(14 14)"/>
</clipPath>
</defs>
</svg>
