<svg width="130" height="130" viewBox="0 0 130 130" fill="none" xmlns="http://www.w3.org/2000/svg">
<rect width="130" height="130" rx="65" fill="#4CAF50"/>
<path d="M43.7083 81.6251C40.7917 78.4168 39.0417 74.9167 39.0417 69.0834C39.0417 58.8751 46.3333 49.8334 56.5417 45.1667L59.1667 48.9584C49.5417 54.2084 47.5 60.9168 46.9167 65.2918C48.375 64.4168 50.4167 64.1251 52.4583 64.4168C57.7083 65.0001 61.7917 69.0834 61.7917 74.6251C61.7917 77.2501 60.625 79.8751 58.875 81.9168C56.8333 83.9584 54.5 84.8334 51.5833 84.8334C48.375 84.8334 45.4583 83.3751 43.7083 81.6251ZM72.875 81.6251C69.9583 78.4168 68.2083 74.9167 68.2083 69.0834C68.2083 58.8751 75.5 49.8334 85.7083 45.1667L88.3333 48.9584C78.7083 54.2084 76.6667 60.9168 76.0833 65.2918C77.5417 64.4168 79.5833 64.1251 81.625 64.4168C86.875 65.0001 90.9583 69.0834 90.9583 74.6251C90.9583 77.2501 89.7917 79.8751 88.0417 81.9168C86.2917 83.9584 83.6667 84.8334 80.75 84.8334C77.5417 84.8334 74.625 83.3751 72.875 81.6251Z" fill="white"/>
</svg>
