<svg width="112" height="59" viewBox="0 0 112 59" fill="none" xmlns="http://www.w3.org/2000/svg">
<path d="M42.1888 52.501C42.1888 52.7693 42.1242 53.0208 41.9948 53.2555C41.8703 53.4903 41.6715 53.6795 41.3984 53.8232C41.1301 53.9669 40.79 54.0388 40.378 54.0388H39.5373V55.9646H38.5313V50.9489H40.378C40.7661 50.9489 41.0966 51.016 41.3697 51.1501C41.6427 51.2842 41.8463 51.4687 41.9805 51.7034C42.1194 51.9381 42.1888 52.204 42.1888 52.501ZM40.3349 53.2268C40.6128 53.2268 40.8187 53.1645 40.9529 53.04C41.087 52.9106 41.1541 52.731 41.1541 52.501C41.1541 52.0124 40.881 51.7681 40.3349 51.7681H39.5373V53.2268H40.3349ZM46.7711 56.0149C46.3017 56.0149 45.8705 55.9047 45.4777 55.6844C45.0849 55.464 44.7735 55.1598 44.5435 54.7718C44.3136 54.3789 44.1986 53.9358 44.1986 53.4424C44.1986 52.9537 44.3136 52.5154 44.5435 52.1274C44.7735 51.7345 45.0849 51.4279 45.4777 51.2076C45.8705 50.9872 46.3017 50.877 46.7711 50.877C47.2454 50.877 47.6766 50.9872 48.0646 51.2076C48.4574 51.4279 48.7664 51.7345 48.9916 52.1274C49.2215 52.5154 49.3365 52.9537 49.3365 53.4424C49.3365 53.9358 49.2215 54.3789 48.9916 54.7718C48.7664 55.1598 48.4574 55.464 48.0646 55.6844C47.6718 55.9047 47.2406 56.0149 46.7711 56.0149ZM46.7711 55.1167C47.0729 55.1167 47.3388 55.0496 47.5688 54.9155C47.7987 54.7765 47.9784 54.5801 48.1077 54.3262C48.2371 54.0723 48.3017 53.7777 48.3017 53.4424C48.3017 53.107 48.2371 52.8148 48.1077 52.5657C47.9784 52.3118 47.7987 52.1178 47.5688 51.9836C47.3388 51.8495 47.0729 51.7824 46.7711 51.7824C46.4693 51.7824 46.2011 51.8495 45.9663 51.9836C45.7364 52.1178 45.5567 52.3118 45.4274 52.5657C45.298 52.8148 45.2334 53.107 45.2334 53.4424C45.2334 53.7777 45.298 54.0723 45.4274 54.3262C45.5567 54.5801 45.7364 54.7765 45.9663 54.9155C46.2011 55.0496 46.4693 55.1167 46.7711 55.1167ZM58.3292 50.9489L56.9279 55.9646H55.7422L54.8009 52.3932L53.8164 55.9646L52.638 55.9718L51.287 50.9489H52.3649L53.2488 54.8436L54.2692 50.9489H55.3901L56.353 54.8221L57.2441 50.9489H58.3292ZM61.5319 51.7609V53.0184H63.2206V53.816H61.5319V55.1454H63.4361V55.9646H60.5259V50.9417H63.4361V51.7609H61.5319ZM68.4771 55.9646L67.3705 54.0101H66.8962V55.9646H65.8902V50.9489H67.7729C68.1609 50.9489 68.4915 51.0183 68.7645 51.1573C69.0376 51.2914 69.2412 51.4758 69.3753 51.7106C69.5142 51.9405 69.5837 52.1992 69.5837 52.4867C69.5837 52.8172 69.4879 53.1166 69.2963 53.3849C69.1046 53.6484 68.8196 53.8304 68.4412 53.931L69.6412 55.9646H68.4771ZM66.8962 53.2555H67.7369C68.01 53.2555 68.2136 53.1909 68.3477 53.0615C68.4819 52.9274 68.5489 52.7429 68.5489 52.5082C68.5489 52.2783 68.4819 52.101 68.3477 51.9765C68.2136 51.8471 68.01 51.7824 67.7369 51.7824H66.8962V53.2555ZM73.0394 51.7609V53.0184H74.7281V53.816H73.0394V55.1454H74.9437V55.9646H72.0334V50.9417H74.9437V51.7609H73.0394ZM79.1511 50.9489C79.6781 50.9489 80.1403 51.0519 80.538 51.2579C80.9404 51.4639 81.2494 51.7585 81.4649 52.1417C81.6853 52.5202 81.7955 52.9609 81.7955 53.4639C81.7955 53.9669 81.6853 54.4077 81.4649 54.7861C81.2494 55.1598 80.9404 55.4496 80.538 55.6556C80.1403 55.8616 79.6781 55.9646 79.1511 55.9646H77.3978V50.9489H79.1511ZM79.1152 55.1095C79.6421 55.1095 80.0493 54.9658 80.3368 54.6783C80.6242 54.3909 80.7679 53.9861 80.7679 53.4639C80.7679 52.9418 80.6242 52.5346 80.3368 52.2423C80.0493 51.9453 79.6421 51.7968 79.1152 51.7968H78.4038V55.1095H79.1152ZM90.186 53.3921C90.4687 53.4448 90.701 53.5861 90.8831 53.816C91.0651 54.046 91.1561 54.3095 91.1561 54.6065C91.1561 54.8747 91.089 55.1119 90.9549 55.3179C90.8256 55.5191 90.6363 55.6772 90.3872 55.7921C90.1381 55.9071 89.8435 55.9646 89.5034 55.9646H87.3404V50.9489H89.41C89.7501 50.9489 90.0423 51.004 90.2866 51.1142C90.5357 51.2243 90.7226 51.3776 90.8471 51.5741C90.9765 51.7705 91.0411 51.9932 91.0411 52.2423C91.0411 52.5346 90.9621 52.7789 90.804 52.9753C90.6507 53.1717 90.4447 53.3106 90.186 53.3921ZM88.3465 53.0184H89.2662C89.5058 53.0184 89.6902 52.9657 89.8196 52.8603C89.9489 52.7501 90.0136 52.5944 90.0136 52.3932C90.0136 52.192 89.9489 52.0363 89.8196 51.9262C89.6902 51.816 89.5058 51.7609 89.2662 51.7609H88.3465V53.0184ZM89.3597 55.1454C89.604 55.1454 89.7932 55.0879 89.9273 54.973C90.0663 54.858 90.1357 54.6951 90.1357 54.4843C90.1357 54.2687 90.0639 54.1011 89.9202 53.9813C89.7764 53.8568 89.5824 53.7945 89.3381 53.7945H88.3465V55.1454H89.3597ZM97.4859 50.9489L95.79 54.2184V55.9646H94.784V54.2184L93.0809 50.9489H94.2163L95.2942 53.2412L96.3649 50.9489H97.4859ZM105.933 55.0089H103.936L103.605 55.9646H102.549L104.353 50.9417H105.524L107.328 55.9646H106.264L105.933 55.0089ZM105.66 54.2041L104.935 52.1058L104.209 54.2041H105.66ZM110.548 50.9489V55.9646H109.542V50.9489H110.548Z" fill="#4B7874"/>
<path d="M44.0406 43.0602L38.0353 25.3379H41.9855L45.8556 37.7755L49.699 25.3379H53.5424L47.5371 43.0602H44.0406Z" fill="#FF9800"/>
<path d="M54.5506 43.0602V29.9286H58.0203V43.0602H54.5506ZM54.5506 28.3539V25.1243H58.0203V28.3539H54.5506Z" fill="#FF9800"/>
<path d="M67.6657 43.0602L64.7832 37.1617L63.1017 38.8965V43.0602H59.6052V25.1243H63.1017V34.9197L67.4255 29.9286H71.6692L67.2654 34.7595L71.5625 43.0602H67.6657Z" fill="#FF9800"/>
<path d="M93.8508 36.6278C93.6729 36.8058 93.4149 36.9481 93.0768 37.0549C92.7387 37.1617 92.2494 37.2773 91.6089 37.4019C90.6124 37.5976 89.9274 37.8467 89.5537 38.1492C89.18 38.4517 88.9932 38.8876 88.9932 39.457C88.9932 40.4357 89.5537 40.925 90.6747 40.925C91.1195 40.925 91.5288 40.8538 91.9025 40.7115C92.2939 40.5513 92.6231 40.3467 92.89 40.0976C93.1747 39.8307 93.3971 39.5282 93.5572 39.1901C93.7352 38.8342 93.8242 38.4606 93.8242 38.0691L93.8508 36.6278ZM94.0911 43.0602C93.9843 42.7221 93.9131 42.3307 93.8775 41.8858C93.4683 42.3485 92.9256 42.7221 92.2494 43.0068C91.5733 43.2737 90.7904 43.4072 89.9007 43.4072C88.3882 43.4072 87.2761 43.078 86.5644 42.4196C85.8704 41.7435 85.5235 40.8716 85.5235 39.804C85.5235 38.8609 85.6747 38.1136 85.9772 37.562C86.2797 36.9926 86.6978 36.5478 87.2317 36.2275C87.7655 35.9072 88.3971 35.6759 89.1267 35.5335C89.874 35.3734 90.6836 35.2311 91.5555 35.1065C92.4274 34.9819 93.0145 34.8218 93.317 34.6261C93.6195 34.4126 93.7708 34.0745 93.7708 33.6118C93.7708 33.1848 93.5661 32.8556 93.1569 32.6243C92.7654 32.3752 92.2316 32.2506 91.5555 32.2506C90.7548 32.2506 90.1765 32.4286 89.8206 32.7845C89.4825 33.1403 89.269 33.6118 89.18 34.199H85.9505C85.9683 33.5229 86.0751 32.9001 86.2708 32.3307C86.4843 31.7613 86.8135 31.272 87.2583 30.8628C87.721 30.4535 88.3171 30.1421 89.0466 29.9286C89.7761 29.6973 90.6658 29.5816 91.7156 29.5816C92.7476 29.5816 93.6195 29.6973 94.3313 29.9286C95.0608 30.1599 95.6391 30.498 96.0661 30.9428C96.511 31.3699 96.8313 31.9126 97.027 32.5709C97.2227 33.2115 97.3206 33.941 97.3206 34.7595V43.0602H94.0911Z" fill="#FF9800"/>
<path d="M106.751 33.9054C106.662 33.2649 106.431 32.82 106.057 32.5709C105.683 32.304 105.096 32.1706 104.295 32.1706C103.637 32.1706 103.13 32.2595 102.774 32.4375C102.418 32.5976 102.24 32.8734 102.24 33.2649C102.24 33.6563 102.418 33.9588 102.774 34.1723C103.13 34.3681 103.664 34.5638 104.376 34.7595C105.123 34.9731 105.835 35.1688 106.511 35.3467C107.187 35.5069 107.783 35.6848 108.299 35.8805C108.993 36.1652 109.527 36.5567 109.9 37.0549C110.274 37.5353 110.461 38.2026 110.461 39.0567C110.461 40.4268 109.972 41.4944 108.993 42.2595C108.032 43.0246 106.609 43.4072 104.723 43.4072C102.694 43.4072 101.137 42.9801 100.052 42.126C98.9841 41.272 98.4325 40.1777 98.3969 38.8431H101.973C101.973 39.4659 102.214 39.9463 102.694 40.2844C103.174 40.6225 103.842 40.7915 104.696 40.7915C105.319 40.7915 105.861 40.6937 106.324 40.4979C106.787 40.2844 107.018 39.9285 107.018 39.4303C107.018 38.9677 106.804 38.6385 106.377 38.4428C105.968 38.2471 105.479 38.078 104.909 37.9357C103.806 37.6688 102.916 37.4286 102.24 37.215C101.564 37.0015 100.995 36.7435 100.532 36.441C99.9094 36.0496 99.4735 35.6047 99.2243 35.1065C98.993 34.6083 98.8774 34.0656 98.8774 33.4784C98.8774 32.9268 98.9752 32.4108 99.171 31.9304C99.3667 31.4499 99.687 31.0407 100.132 30.7026C100.577 30.3467 101.146 30.0709 101.84 29.8752C102.552 29.6795 103.406 29.5816 104.402 29.5816C106.306 29.5816 107.703 29.9464 108.593 30.6759C109.5 31.4055 109.998 32.482 110.087 33.9054H106.751Z" fill="#FF9800"/>
<path d="M78.028 29.4584C79.0606 29.4584 79.933 29.5719 80.6452 29.799C81.3752 30.0261 81.9539 30.3579 82.3812 30.7946C82.8264 31.2138 83.1469 31.7471 83.3428 32.3935C83.5386 33.0224 83.6367 33.7386 83.6367 34.5421V43.0649H80.405C80.2981 42.7329 80.2269 41.9755 80.1913 41.5388C79.7818 41.993 79.1851 42.5334 78.5085 42.8129C77.8319 43.0749 77.0217 43.3168 76.1315 43.3168C74.618 43.3168 73.5854 42.7093 72.8732 42.0629C72.1788 41.3991 71.8314 40.5431 71.8314 39.495C71.8314 38.5691 71.9827 37.8352 72.2853 37.2936C72.4051 37.0723 72.5435 36.8703 72.6996 36.6873C72.9452 36.4402 73.1885 36.2286 73.4364 36.0466C73.4706 36.0248 73.5056 36.0043 73.5408 35.9836C74.0749 35.6691 74.7072 35.4418 75.4373 35.302C76.0984 35.163 76.8084 35.0387 77.567 34.927C77.9115 34.9086 78.2795 34.8935 78.675 34.8807C75.6835 36.2617 74.8871 37.1333 74.6563 37.5215C73.5488 39.3845 74.4617 41.083 75.8506 41.4482C77.4936 41.8802 79.1123 41.1136 79.8758 40.4772C82.0962 38.47 82.0647 33.1387 81.7567 30.8497C80.5352 31.8677 77.3579 32.0928 75.8506 32.1091C74.362 32.2068 73.1938 32.6669 72.3229 33.2232C72.3763 32.849 72.4614 32.4936 72.5792 32.1573C72.7929 31.5984 73.1223 31.1181 73.5674 30.7163C74.0303 30.3145 74.627 30.0086 75.357 29.799C76.087 29.5719 76.9774 29.4584 78.028 29.4584Z" fill="#FF9800"/>
<path d="M30.712 23.5846V15.4441C30.712 14.4476 30.534 13.7715 30.1782 13.4156C29.8401 13.0419 29.2707 12.8551 28.47 12.8551C28.0429 12.8551 27.6604 12.9441 27.3223 13.122C26.9842 13.2822 26.6995 13.5135 26.4682 13.816C26.2369 14.1007 26.059 14.4387 25.9344 14.8302C25.8276 15.2039 25.7743 15.6131 25.7743 16.0579V23.5846H22.3045V5.64874H25.7743V12.1612C25.8988 11.8765 26.0857 11.6096 26.3348 11.3605C26.6017 11.0936 26.9042 10.8711 27.2422 10.6932C27.5803 10.5153 27.954 10.3729 28.3632 10.2662C28.7725 10.1594 29.1995 10.106 29.6444 10.106C30.9967 10.106 32.091 10.4797 32.9273 11.227C33.7813 11.9565 34.2084 12.9797 34.2084 14.2964V23.5846H30.712Z" fill="#4CAF50"/>
<path d="M43.8417 15.7377C43.8239 15.2572 43.7349 14.8391 43.5748 14.4832C43.4324 14.1096 43.2367 13.8071 42.9876 13.5758C42.7385 13.3266 42.4538 13.1487 42.1335 13.0419C41.8132 12.9174 41.4841 12.8551 41.146 12.8551C40.452 12.8551 39.8471 13.1131 39.331 13.6291C38.8328 14.1274 38.5481 14.8302 38.477 15.7377H43.8417ZM38.3702 17.9263C38.4236 18.9227 38.7083 19.7145 39.2243 20.3017C39.7581 20.8889 40.452 21.1825 41.3061 21.1825C41.8755 21.1825 42.3737 21.0579 42.8008 20.8088C43.2456 20.5419 43.5303 20.1771 43.6549 19.7145H47.2314C46.8221 21.0668 46.1104 22.1077 45.0961 22.8373C44.0819 23.5668 42.872 23.9316 41.4663 23.9316C37.0891 23.9316 34.9005 21.5472 34.9005 16.7786C34.9005 15.7644 35.0428 14.848 35.3275 14.0295C35.6122 13.211 36.0215 12.5081 36.5553 11.921C37.1069 11.3338 37.7741 10.8889 38.557 10.5864C39.3399 10.2662 40.2385 10.106 41.2527 10.106C43.2812 10.106 44.8114 10.7555 45.8435 12.0544C46.8933 13.3533 47.4182 15.3106 47.4182 17.9263H38.3702Z" fill="#4CAF50"/>
<path d="M55.5302 14.937H58.7597V18.6736C58.7597 19.3675 58.6529 20.0348 58.4394 20.6754C58.2437 21.2981 57.9234 21.8586 57.4785 22.3568C57.0515 22.8373 56.4999 23.2198 55.8238 23.5045C55.1654 23.7892 54.3736 23.9316 53.4483 23.9316C52.4875 23.9316 51.669 23.7892 50.9928 23.5045C50.3167 23.2198 49.7562 22.8373 49.3113 22.3568C48.8843 21.8764 48.5729 21.3159 48.3772 20.6754C48.1814 20.0348 48.0836 19.3586 48.0836 18.6469V6.90319H51.4999V10.453H58.7597V12.9085H51.4999V18.2999C51.4999 19.1362 51.6512 19.7857 51.9537 20.2483C52.2739 20.6932 52.79 20.9156 53.5017 20.9156C54.1956 20.9156 54.7028 20.6932 55.023 20.2483C55.3611 19.8035 55.5302 19.1718 55.5302 18.3533V14.937Z" fill="#4CAF50"/>
<path d="M59.7239 23.5846V10.453H63.1936V23.5846H59.7239ZM59.7239 8.87827V5.64874H63.1936V8.87827H59.7239Z" fill="#4CAF50"/>
<path d="M9.99071 23.5359H6.33413V18.8869C7.66146 18.4732 8.87656 18.0178 9.99071 17.5285V23.5359Z" fill="#4CAF50"/>
<path d="M21.7344 23.5359H17.2237L12.4578 16.3029C13.6143 15.6548 14.637 14.9669 15.545 14.2519L21.7344 23.5359Z" fill="#4CAF50"/>
<path d="M9.99071 11.9682C8.80538 13.0314 7.59486 13.9001 6.33413 14.6584V5.8134H9.99071V11.9682Z" fill="#4CAF50"/>
<path d="M3.86835 17.0246C10.014 15.176 14.803 11.2815 17.1991 5.23408C17.4378 4.63638 17.666 3.9556 17.8547 3.33716C17.9146 3.12141 17.9764 2.90541 18.0403 2.68893C18.041 2.68524 18.047 2.68631 18.0465 2.69005L18.0129 3.02659C17.9442 3.69844 17.819 4.37446 17.6511 5.02935C17.1011 7.24422 16.018 9.31693 14.5991 11.0948C11.9566 14.4008 8.13287 16.6791 4.04392 17.6671C3.63157 17.7546 3.45641 17.1666 3.86835 17.0246Z" fill="#FF9800"/>
<path d="M15.324 10.6669L16.1926 10.7278C16.8795 10.776 17.5313 10.4297 17.8817 9.83635C18.3201 9.09405 18.7093 8.32446 19.0473 7.53095L17.914 7.73304C17.3802 7.82824 16.9183 8.15824 16.6524 8.63176C16.2558 9.33813 15.8123 10.0176 15.324 10.6669Z" fill="#011614"/>
<path d="M17.3986 7.14848L18.2055 7.0046C18.9292 6.87554 19.5196 6.35313 19.7387 5.64936C20.0099 4.77781 20.223 3.88276 20.3758 2.96822L19.5228 3.28632C18.9343 3.5058 18.4849 3.99342 18.316 4.60032C18.0721 5.47728 17.7652 6.32805 17.3986 7.14848Z" fill="#011614"/>
<path d="M15.0832 6.79523L14.5353 6.10324C14.2902 6.63113 14.0149 7.14443 13.7105 7.64139C13.466 8.04053 13.4338 8.53554 13.6276 8.96326L14.0955 9.9963C14.4888 9.48615 14.8521 8.95566 15.1839 8.40662C15.489 7.90169 15.4505 7.25907 15.0832 6.79523Z" fill="#011614"/>
<path d="M16.509 3.00277L15.7253 2.31256C15.5801 3.13148 15.3718 3.92986 15.1027 4.7027C14.945 5.15525 15.0284 5.65789 15.3264 6.03424L16 6.88484C16.3688 6.10355 16.6785 5.29163 16.9255 4.45336C17.0797 3.93013 16.9188 3.36365 16.509 3.00277Z" fill="#011614"/>
<path d="M12.2246 13.8999L13.0982 14.1244C13.7903 14.3021 14.5252 14.0989 15.0214 13.5857C15.677 12.9075 16.2798 12.1907 16.8275 11.4395L15.8166 11.3686C15.2123 11.3262 14.6209 11.56 14.2132 12.0081C13.6019 12.6798 12.9379 13.3119 12.2246 13.8999Z" fill="#011614"/>
<path d="M13.2906 9.82611L12.8635 8.88333C12.3876 9.51253 11.8605 10.1094 11.2845 10.6695C10.9636 10.9815 10.8356 11.4433 10.9447 11.8792L11.2108 12.9433C11.8744 12.4061 12.4928 11.8287 13.0632 11.2149C13.411 10.8406 13.5023 10.2935 13.2906 9.82611Z" fill="#011614"/>
<path d="M81.4414 20.7697C79.9502 19.913 78.3482 19.3023 76.5166 19.4041C75.0926 19.4833 73.8933 20.1679 73.0809 21.5475C72.8975 21.8589 72.7014 22.3025 72.438 22.4059C71.7232 22.6885 70.9686 22.8216 70.3229 22.9896C70.6865 21.819 71.053 20.6295 71.4299 19.4425C71.4823 19.2757 71.5586 19.0864 71.6764 18.9608C72.2375 18.371 72.8402 17.8223 73.385 17.2188C74.2883 16.218 74.58 15.0281 74.5761 13.8058C74.5718 12.4763 74.0929 11.3297 73.5355 10.217C72.8184 8.78518 71.7906 7.62189 70.7275 6.48424C70.4455 6.18245 70.1658 6.22862 69.9254 6.62551C68.8687 8.369 67.7484 10.0962 67.1457 12.0279C66.4492 14.2603 66.1619 16.4049 67.7873 18.1438C68.2044 18.5903 68.3983 18.4918 68.6453 18.0634C69.1879 17.1229 69.7083 16.1703 70.1688 15.1951C70.4606 14.5776 70.6285 13.9118 70.851 13.2666C70.5398 16.8679 69.5972 20.3233 67.8052 23.5845C67.8052 24.6111 67.8052 25.8943 67.8052 26.9208C67.9379 26.7737 68.6436 26.1366 68.8008 26.0188C71.3597 24.1347 74.1769 23.1405 77.1337 22.7151C77.3013 22.6902 77.472 22.7517 77.6399 22.7715C76.2756 23.2371 74.9962 23.7602 73.8441 24.6806C73.4351 25.0072 73.5106 25.2144 73.8206 25.3919C74.9732 26.0516 76.2294 26.1024 77.6022 25.607C79.2134 25.0253 80.4921 23.8809 81.7893 22.768C82.1717 22.4402 82.4816 22.0191 82.8499 21.6131C82.3162 21.2931 81.8835 21.0238 81.4414 20.7697Z" fill="#4CAF50"/>
</svg>
